<svg width="32" height="34" viewBox="0 0 32 34" fill="none" xmlns="http://www.w3.org/2000/svg">
<path d="M2 8.92285H30.3335" stroke="#E6E6F8" stroke-width="2.5" stroke-linecap="round" stroke-linejoin="round"/>
<path d="M5.14795 8.92285H27.1851V29.6922C27.1851 30.3043 26.927 30.8913 26.4679 31.324C26.0088 31.7567 25.3859 32 24.7365 32H7.59652C6.94711 32 6.32432 31.7567 5.86511 31.324C5.40593 30.8913 5.14795 30.3043 5.14795 29.6922V8.92285Z" stroke="#E6E6F8" stroke-width="2.5" stroke-linecap="round" stroke-linejoin="round"/>
<path d="M9.87061 8.92313V7.76928C9.87061 6.23917 10.5219 4.77172 11.6811 3.68977C12.8403 2.60783 14.4126 2 16.052 2C17.6914 2 19.2636 2.60783 20.4229 3.68977C21.5821 4.77172 22.2333 6.23917 22.2333 7.76928V8.92313" stroke="#E6E6F8" stroke-width="2.5" stroke-linecap="round" stroke-linejoin="round"/>
<path d="M12.2314 15.8497V25.0841" stroke="#E6E6F8" stroke-width="2.5" stroke-linecap="square" stroke-linejoin="round"/>
<path d="M20.1021 15.8497V25.0841" stroke="#E6E6F8" stroke-width="2.5" stroke-linecap="square" stroke-linejoin="round"/>
</svg>
